<?xml version="1.0" encoding="UTF-8"?>
<svg width="12px" height="14px" viewBox="0 0 12 14" version="1.1" xmlns="http://www.w3.org/2000/svg" xmlns:xlink="http://www.w3.org/1999/xlink">
    <!-- Generator: Sketch 61.2 (89653) - https://sketch.com -->
    <title>Group 9</title>
    <desc>Created with Sketch.</desc>
    <g id="DWEB" stroke="none" stroke-width="1" fill="none" fill-rule="evenodd">
        <g id="Artboard" transform="translate(-3.000000, -2.000000)">
            <g id="Group-9">
                <g id="Safe_Icon_18X18-">
                    <rect id="Rectangle" x="0" y="0" width="18" height="18"></rect>
                    <g id="icon" transform="translate(3.000000, 2.000000)">
                        <path d="M12,5.21527518 L12,5.2991389 C12,5.2991389 12,5.32010483 12,5.32010483 L11.9793262,7.22800449 C11.9793262,7.22800449 11.9793262,7.22800449 11.9793262,7.24897042 C11.9793262,7.47959566 11.9793262,7.66828903 11.9586524,7.87794833 C11.9173047,8.8214152 11.5865237,9.72295021 10.9249617,10.6244852 C10.1807044,11.6518158 9.1676876,12.490453 7.82388974,13.2242606 C7.41041348,13.4339199 6.99693721,13.6226133 6.58346095,13.8113066 C6.48009188,13.8532385 6.37672282,13.8951703 6.29402757,13.9371022 C6.1906585,13.9790341 6.08728943,14 5.98392037,14 C5.90122511,14 5.81852986,13.9790341 5.73583461,13.9580681 C4.06125574,13.3290902 2.75880551,12.490453 1.70444104,11.4211906 C0.877488515,10.5825534 0.381316998,9.68101835 0.153905054,8.71658555 C0.0505359877,8.29726694 0.00918836141,7.87794833 0.00918836141,7.47959566 C-0.0114854518,6.32646949 0.00918836141,5.17334332 0.00918836141,4.04118308 C0.00918836141,3.6428304 0.00918836141,3.22351179 0.00918836141,2.82515912 C0.00918836141,2.34294272 0.215926493,2.11231748 0.691424196,2.09135155 C2.30398162,1.9865219 3.8338438,1.37850992 5.52909648,0.204417821 C5.92189893,-0.0681392737 6.08728943,-0.0681392737 6.5007657,0.204417821 C7.78254211,1.10595283 8.91960184,1.65106702 10.118683,1.92362411 C10.4287902,1.9865219 10.7388974,2.02845376 11.0696784,2.07038562 C11.1730475,2.09135155 11.2970904,2.09135155 11.4004594,2.11231748 C11.8966309,2.17521528 12,2.51067016 12,2.78322726 C12,3.41220517 12,4.06214901 12,4.69112692 L12,5.21527518 C12,5.21527518 12,5.21527518 12,5.21527518 Z M11,4.70617696 C11,4.12520868 11,3.56427379 11,2.98330551 C10.9019608,2.96327212 10.8235294,2.96327212 10.7254902,2.94323873 C10.4117647,2.90317195 10.0784314,2.86310518 9.74509804,2.78297162 C8.52941176,2.50250417 7.33333333,1.94156928 6.05882353,1.04006678 C6.03921569,1.02003339 6.01960784,1 6,1 C5.98039216,1.02003339 5.96078431,1.04006678 5.94117647,1.04006678 C4.21568627,2.24207012 2.64705882,2.86310518 1,2.98330551 C1,3.3639399 1,3.76460768 1,4.14524207 C1,5.22704508 1,6.32888147 1,7.43071786 C1,7.77128548 1.03921569,8.11185309 1.11764706,8.47245409 C1.29411765,9.27378965 1.7254902,10.015025 2.41176471,10.736227 C3.33333333,11.6978297 4.50980392,12.4390651 5.98039216,13 C5.98039216,13 6,13 6,13 C6.09803922,12.9599332 6.19607843,12.9198664 6.2745098,12.8797997 C6.64705882,12.7195326 7.03921569,12.5392321 7.39215686,12.3589316 C8.56862745,11.7178631 9.45098039,10.9766277 10.0980392,10.0951586 C10.627451,9.35392321 10.9019608,8.61268781 10.9411765,7.85141903 C10.9411765,7.67111853 10.9607843,7.49081803 10.9607843,7.27045075 L10.9607843,7.21035058 L10.9803922,5.42737896 C10.9803922,5.42737896 10.9803922,5.40734558 10.9803922,5.40734558 L10.9803922,5.34724541 L10.9803922,4.70617696 L11,4.70617696 Z" id="Shape" fill="#2B2B2B" fill-rule="nonzero"></path>
                        <g id="cross" transform="translate(2.500000, 4.000000)" stroke="#2B2B2B" stroke-linecap="round">
                            <line x1="3.5" y1="-3.81639165e-16" x2="3.5" y2="6" id="Line"></line>
                            <line x1="3.5" y1="-3.81639165e-16" x2="3.5" y2="6" id="Line" transform="translate(3.500000, 3.000000) rotate(-90.000000) translate(-3.500000, -3.000000) "></line>
                        </g>
                    </g>
                </g>
            </g>
        </g>
    </g>
</svg>